<svg width="18" height="18" viewBox="0 0 18 18" fill="none" xmlns="http://www.w3.org/2000/svg">
<path fill-rule="evenodd" clip-rule="evenodd" d="M8.66629 16.2401C12.7502 16.2401 16.0609 12.9294 16.0609 8.84549C16.0609 4.76157 12.7502 1.4509 8.66629 1.4509C4.58237 1.4509 1.2717 4.76157 1.2717 8.84549C1.2717 12.9294 4.58237 16.2401 8.66629 16.2401ZM17.1172 8.84549C17.1172 13.5128 13.3336 17.2964 8.66629 17.2964C3.99895 17.2964 0.215332 13.5128 0.215332 8.84549C0.215332 4.17815 3.99895 0.394531 8.66629 0.394531C13.3336 0.394531 17.1172 4.17815 17.1172 8.84549Z" fill="black"/>
<path fill-rule="evenodd" clip-rule="evenodd" d="M8.13805 3.56372C8.42976 3.56372 8.66623 3.8002 8.66623 4.09191V9.59542L12.0974 11.5561C12.3507 11.7008 12.4387 12.0235 12.2939 12.2767C12.1492 12.53 11.8266 12.618 11.5733 12.4733L7.876 10.3605C7.71143 10.2665 7.60986 10.0915 7.60986 9.90194V4.09191C7.60986 3.8002 7.84634 3.56372 8.13805 3.56372Z" fill="black"/>
</svg>
