<svg width="102" height="102" viewBox="0 0 102 102" fill="none" xmlns="http://www.w3.org/2000/svg">
<path fill-rule="evenodd" clip-rule="evenodd" d="M62.6565 19.125H88.0386C95.536 19.125 101.415 25.5627 100.736 33.0293L96.6795 77.6543C96.0824 84.2216 90.5762 89.25 83.9818 89.25H18.0188C11.4245 89.25 5.91818 84.2216 5.32115 77.6543L1.26434 33.0293C0.983482 29.9399 1.82533 27.0267 3.43997 24.6727L3.18781 19.125C3.18781 12.0834 8.89618 6.375 15.9378 6.375H39.3441C42.7256 6.375 45.9686 7.7183 48.3597 10.1094L53.6409 15.3906C56.032 17.7817 59.275 19.125 62.6565 19.125ZM9.60406 19.8877C10.9607 19.3947 12.4274 19.125 13.962 19.125H48.3597L43.8519 14.6172C42.6563 13.4217 41.0348 12.75 39.3441 12.75H15.9378C12.4572 12.75 9.62807 15.5394 9.56392 19.0047L9.60406 19.8877Z" fill="#A0AEC0"/>
</svg>
