<svg width="13" height="12" viewBox="0 0 13 12" fill="none" xmlns="http://www.w3.org/2000/svg">
<path fill-rule="evenodd" clip-rule="evenodd" d="M6.5 3.17212C6.69632 3.17212 6.85547 3.33127 6.85547 3.52759V5.6604H8.98828C9.1846 5.6604 9.34375 5.81955 9.34375 6.01587C9.34375 6.21219 9.1846 6.37134 8.98828 6.37134H6.85547V8.50415C6.85547 8.70047 6.69632 8.85962 6.5 8.85962C6.30368 8.85962 6.14453 8.70047 6.14453 8.50415V6.37134H4.01172C3.8154 6.37134 3.65625 6.21219 3.65625 6.01587C3.65625 5.81955 3.8154 5.6604 4.01172 5.6604H6.14453V3.52759C6.14453 3.33127 6.30368 3.17212 6.5 3.17212Z" fill="white"/>
</svg>
