<svg width="18" height="18" viewBox="0 0 18 18" fill="none" xmlns="http://www.w3.org/2000/svg">
<path fill-rule="evenodd" clip-rule="evenodd" d="M8.57845 3.47777C11.4955 3.47777 13.8603 5.84253 13.8603 8.75962C13.8603 11.6767 11.4955 14.0415 8.57845 14.0415C5.66137 14.0415 3.2966 11.6767 3.2966 8.75962C3.2966 7.97217 3.46858 7.22633 3.77652 6.55639C3.89835 6.29134 3.78225 5.97771 3.5172 5.85588C3.25215 5.73405 2.93852 5.85015 2.81669 6.1152C2.44643 6.92072 2.24023 7.81681 2.24023 8.75962C2.24023 12.2601 5.07795 15.0978 8.57845 15.0978C12.079 15.0978 14.9167 12.2601 14.9167 8.75962C14.9167 5.25912 12.079 2.4214 8.57845 2.4214V3.47777Z" fill="black"/>
<path d="M8.57845 5.02666V0.872508C8.57845 0.6486 8.3173 0.526284 8.14529 0.669626L5.6528 2.7467C5.5261 2.85229 5.5261 3.04688 5.6528 3.15247L8.14529 5.22954C8.3173 5.37288 8.57845 5.25057 8.57845 5.02666Z" fill="black"/>
</svg>
