<svg width="18" height="18" viewBox="0 0 18 18" fill="none" xmlns="http://www.w3.org/2000/svg">
<path fill-rule="evenodd" clip-rule="evenodd" d="M0.171387 3.03551C0.171387 2.7438 0.407863 2.50732 0.699572 2.50732H2.28413C2.52649 2.50732 2.73776 2.67227 2.79654 2.90741L3.22471 4.62006H15.4887C15.6514 4.62006 15.805 4.695 15.9051 4.8232C16.0052 4.9514 16.0406 5.11856 16.0012 5.27635L14.4166 11.6146C14.3578 11.8497 14.1466 12.0147 13.9042 12.0147H4.39687C4.1545 12.0147 3.94323 11.8497 3.88445 11.6146L1.87173 3.56369H0.699572C0.407863 3.56369 0.171387 3.32722 0.171387 3.03551ZM3.4888 5.67643L4.01698 7.78917H5.45324V5.67643H3.4888ZM6.50961 5.67643V7.78917H8.62234V5.67643H6.50961ZM9.67871 5.67643V7.78917H11.7915V5.67643H9.67871ZM12.8478 5.67643V7.78917H14.2841L14.8123 5.67643H12.8478ZM14.02 8.84554H12.8478V10.9583H13.4918L14.02 8.84554ZM11.7915 8.84554H9.67871V10.9583H11.7915V8.84554ZM8.62234 8.84554H6.50961V10.9583H8.62234V8.84554ZM5.45324 8.84554H4.28108L4.80926 10.9583H5.45324V8.84554ZM5.45324 14.1274C4.86982 14.1274 4.39687 14.6003 4.39687 15.1838C4.39687 15.7672 4.86982 16.2401 5.45324 16.2401C6.03665 16.2401 6.50961 15.7672 6.50961 15.1838C6.50961 14.6003 6.03665 14.1274 5.45324 14.1274ZM3.3405 15.1838C3.3405 14.0169 4.2864 13.071 5.45324 13.071C6.62007 13.071 7.56598 14.0169 7.56598 15.1838C7.56598 16.3506 6.62007 17.2965 5.45324 17.2965C4.2864 17.2965 3.3405 16.3506 3.3405 15.1838ZM12.8478 14.1274C12.2644 14.1274 11.7915 14.6003 11.7915 15.1838C11.7915 15.7672 12.2644 16.2401 12.8478 16.2401C13.4312 16.2401 13.9042 15.7672 13.9042 15.1838C13.9042 14.6003 13.4312 14.1274 12.8478 14.1274ZM10.7351 15.1838C10.7351 14.0169 11.681 13.071 12.8478 13.071C14.0147 13.071 14.9606 14.0169 14.9606 15.1838C14.9606 16.3506 14.0147 17.2965 12.8478 17.2965C11.681 17.2965 10.7351 16.3506 10.7351 15.1838Z" fill="#16192C"/>
</svg>
