<svg width="16" height="17" viewBox="0 0 16 17" fill="none" xmlns="http://www.w3.org/2000/svg">
<path fill-rule="evenodd" clip-rule="evenodd" d="M8.1857 1.57434C8.06649 1.52665 7.93351 1.52665 7.8143 1.57434L1.84629 3.96154L4.25 4.92303L10.4037 2.46154L8.1857 1.57434ZM11.75 3.00006L5.59629 5.46154L8 6.42303L14.1537 3.96154L11.75 3.00006ZM15 4.70006L8.5 7.30006V15.223L15 12.623V4.70006ZM7.5 15.223V7.30006L1 4.70006V12.623L7.5 15.223ZM7.44291 0.645859C7.80053 0.502813 8.19947 0.502813 8.55709 0.645859L15.6857 3.4973C15.8755 3.57323 16 3.75709 16 3.96154V12.623C16 13.0319 15.751 13.3996 15.3714 13.5515L8.1857 16.4258C8.06649 16.4735 7.93351 16.4735 7.8143 16.4258L0.628609 13.5515C0.248951 13.3996 0 13.0319 0 12.623V3.96154C0 3.75709 0.124475 3.57323 0.314305 3.4973L7.44291 0.645859Z" fill="#A0AEC0"/>
</svg>
