<svg width="16" height="13" viewBox="0 0 16 13" fill="none" xmlns="http://www.w3.org/2000/svg">
<path fill-rule="evenodd" clip-rule="evenodd" d="M0 2C0 1.17157 0.671573 0.5 1.5 0.5H10.5C11.3284 0.5 12 1.17157 12 2V3.5H13.0194C13.4751 3.5 13.906 3.70713 14.1907 4.06296L15.6713 5.91374C15.8841 6.17971 16 6.51017 16 6.85078V9C16 9.82843 15.3284 10.5 14.5 10.5H14C14 11.6046 13.1046 12.5 12 12.5C10.8954 12.5 10 11.6046 10 10.5H5C5 11.6046 4.10457 12.5 3 12.5C1.89543 12.5 1 11.6046 1 10.5C1 10.4716 1.00059 10.4434 1.00176 10.4153C0.418245 10.2098 0 9.65377 0 9V2ZM1.29396 9.4557C1.64562 8.88242 2.27815 8.5 3 8.5C3.74028 8.5 4.38663 8.9022 4.73244 9.5H10.2676C10.4432 9.19637 10.6964 8.9432 11 8.76756V2C11 1.72386 10.7761 1.5 10.5 1.5H1.5C1.22386 1.5 1 1.72386 1 2V9C1 9.20269 1.1206 9.3772 1.29396 9.4557ZM12 8.5C12.7403 8.5 13.3866 8.9022 13.7324 9.5H14.5C14.7761 9.5 15 9.27614 15 9V6.85078C15 6.73725 14.9614 6.62709 14.8904 6.53843L13.4098 4.68765C13.3149 4.56905 13.1713 4.5 13.0194 4.5H12V8.5ZM3 9.5C2.44772 9.5 2 9.94771 2 10.5C2 11.0523 2.44772 11.5 3 11.5C3.55228 11.5 4 11.0523 4 10.5C4 9.94771 3.55228 9.5 3 9.5ZM12 9.5C11.4477 9.5 11 9.94771 11 10.5C11 11.0523 11.4477 11.5 12 11.5C12.5523 11.5 13 11.0523 13 10.5C13 9.94771 12.5523 9.5 12 9.5Z" fill="#A0AEC0"/>
</svg>
