<svg width="16" height="17" viewBox="0 0 16 17" fill="none" xmlns="http://www.w3.org/2000/svg">
<path fill-rule="evenodd" clip-rule="evenodd" d="M8 15.5C11.866 15.5 15 12.366 15 8.5C15 4.63401 11.866 1.5 8 1.5C4.13401 1.5 1 4.63401 1 8.5C1 12.366 4.13401 15.5 8 15.5ZM16 8.5C16 12.9183 12.4183 16.5 8 16.5C3.58172 16.5 0 12.9183 0 8.5C0 4.08172 3.58172 0.5 8 0.5C12.4183 0.5 16 4.08172 16 8.5Z" fill="#A0AEC0"/>
<path fill-rule="evenodd" clip-rule="evenodd" d="M7.5 3.5C7.77614 3.5 8 3.72386 8 4V9.20984L11.2481 11.0659C11.4878 11.2029 11.5711 11.5083 11.4341 11.7481C11.2971 11.9878 10.9917 12.0711 10.7519 11.9341L7.25193 9.93412C7.09614 9.8451 7 9.67943 7 9.5V4C7 3.72386 7.22386 3.5 7.5 3.5Z" fill="#A0AEC0"/>
</svg>
