<svg width="9" height="10" viewBox="0 0 9 10" fill="none" xmlns="http://www.w3.org/2000/svg">
<path fill-rule="evenodd" clip-rule="evenodd" d="M4.5 0.984375C4.8085 0.984375 5.05859 1.23447 5.05859 1.54297V4.89453H8.41016C8.71866 4.89453 8.96875 5.14462 8.96875 5.45312C8.96875 5.76163 8.71866 6.01172 8.41016 6.01172H5.05859V9.36328C5.05859 9.67178 4.8085 9.92188 4.5 9.92188C4.1915 9.92188 3.94141 9.67178 3.94141 9.36328V6.01172H0.589844C0.281341 6.01172 0.03125 5.76163 0.03125 5.45312C0.03125 5.14462 0.281341 4.89453 0.589844 4.89453H3.94141V1.54297C3.94141 1.23447 4.1915 0.984375 4.5 0.984375Z" fill="white"/>
</svg>
