<svg width="15" height="15" viewBox="0 0 15 15" fill="none" xmlns="http://www.w3.org/2000/svg">
<path fill-rule="evenodd" clip-rule="evenodd" d="M0 1C0 0.723858 0.223858 0.5 0.5 0.5H2C2.22943 0.5 2.42943 0.656149 2.48507 0.878732L2.89039 2.5H14.5C14.654 2.5 14.7993 2.57094 14.8941 2.69229C14.9889 2.81365 15.0224 2.9719 14.9851 3.12127L13.4851 9.12127C13.4294 9.34385 13.2294 9.5 13 9.5H4C3.77057 9.5 3.57057 9.34385 3.51493 9.12127L1.60961 1.5H0.5C0.223858 1.5 0 1.27614 0 1ZM3.14039 3.5L3.64039 5.5H5V3.5H3.14039ZM6 3.5V5.5H8V3.5H6ZM9 3.5V5.5H11V3.5H9ZM12 3.5V5.5H13.3596L13.8596 3.5H12ZM13.1096 6.5H12V8.5H12.6096L13.1096 6.5ZM11 6.5H9V8.5H11V6.5ZM8 6.5H6V8.5H8V6.5ZM5 6.5H3.89039L4.39039 8.5H5V6.5ZM5 11.5C4.44772 11.5 4 11.9477 4 12.5C4 13.0523 4.44772 13.5 5 13.5C5.55228 13.5 6 13.0523 6 12.5C6 11.9477 5.55228 11.5 5 11.5ZM3 12.5C3 11.3954 3.89543 10.5 5 10.5C6.10457 10.5 7 11.3954 7 12.5C7 13.6046 6.10457 14.5 5 14.5C3.89543 14.5 3 13.6046 3 12.5ZM12 11.5C11.4477 11.5 11 11.9477 11 12.5C11 13.0523 11.4477 13.5 12 13.5C12.5523 13.5 13 13.0523 13 12.5C13 11.9477 12.5523 11.5 12 11.5ZM10 12.5C10 11.3954 10.8954 10.5 12 10.5C13.1046 10.5 14 11.3954 14 12.5C14 13.6046 13.1046 14.5 12 14.5C10.8954 14.5 10 13.6046 10 12.5Z" fill="#A0AEC0"/>
</svg>
