<svg width="16" height="16" viewBox="0 0 16 16" fill="none" xmlns="http://www.w3.org/2000/svg">
<path fill-rule="evenodd" clip-rule="evenodd" d="M12.1362 0.825799C13.0829 0.589119 14 1.30516 14 2.28101V3.50024H14.5C15.3284 3.50024 16 4.17181 16 5.00024V14.0002C16 14.8287 15.3284 15.5002 14.5 15.5002H1.5C0.671573 15.5002 0 14.8287 0 14.0002V5.00024C0 4.19444 0.635386 3.53704 1.43248 3.50173L12.1362 0.825799ZM5.56155 3.50024H13V2.28101C13 1.95573 12.6943 1.71705 12.3787 1.79594L5.56155 3.50024ZM1.5 4.50024C1.22386 4.50024 1 4.72409 1 5.00024V14.0002C1 14.2764 1.22386 14.5002 1.5 14.5002H14.5C14.7761 14.5002 15 14.2764 15 14.0002V5.00024C15 4.72409 14.7761 4.50024 14.5 4.50024H1.5Z" fill="#A0AEC0"/>
</svg>
